<svg width="40" height="35" viewBox="0 0 40 35" fill="none" xmlns="http://www.w3.org/2000/svg">
<g filter="url(#filter0_d)">
<path d="M16.7151 22.343L13.427 20.5807C13.4222 20.5781 13.4203 20.572 13.423 20.5671L14.0041 19.4828C14.0067 19.478 14.0127 19.4761 14.0176 19.4787L15.1107 20.0646L15.7012 18.9627L14.6081 18.3768C14.6033 18.3742 14.6014 18.3681 14.6041 18.3633L18.7176 10.6876C18.7222 10.6788 18.7354 10.6815 18.7363 10.6913L18.9347 12.7513C18.9442 12.8495 18.9243 12.9484 18.8777 13.0354L18.3587 14.0039L19.4606 14.5945L19.9796 13.626C20.0262 13.539 20.0976 13.4677 20.1846 13.4212L22.0097 12.4458C22.0184 12.4411 22.0279 12.4506 22.0232 12.4593L19.9719 16.287L27.6763 20.4163C27.6811 20.419 27.683 20.425 27.6803 20.4299L26.5984 22.4487C26.5463 22.546 26.4251 22.5827 26.3277 22.5305L18.7908 18.4909L17.9097 20.135C17.9071 20.1399 17.901 20.1417 17.8962 20.1391L16.8031 19.5532L16.2125 20.6552L17.3056 21.241C17.3105 21.2436 17.3123 21.2497 17.3097 21.2546L16.7286 22.3389C16.726 22.3438 16.7199 22.3456 16.7151 22.343Z" fill="#15B35E"/>
<path d="M16.7151 22.343L13.427 20.5807C13.4222 20.5781 13.4203 20.572 13.423 20.5671L14.0041 19.4828C14.0067 19.478 14.0127 19.4761 14.0176 19.4787L15.1107 20.0646L15.7012 18.9627L14.6081 18.3768C14.6033 18.3742 14.6014 18.3681 14.6041 18.3633L18.7176 10.6876C18.7222 10.6788 18.7354 10.6815 18.7363 10.6913L18.9347 12.7513C18.9442 12.8495 18.9243 12.9484 18.8777 13.0354L18.3587 14.0039L19.4606 14.5945L19.9796 13.626C20.0262 13.539 20.0976 13.4677 20.1846 13.4212L22.0097 12.4458C22.0184 12.4411 22.0279 12.4506 22.0232 12.4593L19.9719 16.287L27.6763 20.4163C27.6811 20.419 27.683 20.425 27.6803 20.4299L26.5984 22.4487C26.5463 22.546 26.4251 22.5827 26.3277 22.5305L18.7908 18.4909L17.9097 20.135C17.9071 20.1399 17.901 20.1417 17.8962 20.1391L16.8031 19.5532L16.2125 20.6552L17.3056 21.241C17.3105 21.2436 17.3123 21.2497 17.3097 21.2546L16.7286 22.3389C16.726 22.3438 16.7199 22.3456 16.7151 22.343Z" stroke="#15B35E" stroke-width="0.7"/>
</g>
<defs>
<filter id="filter0_d" x="9.07166" y="6.33191" width="22.9599" height="20.5724" filterUnits="userSpaceOnUse" color-interpolation-filters="sRGB">
<feFlood flood-opacity="0" result="BackgroundImageFix"/>
<feColorMatrix in="SourceAlpha" type="matrix" values="0 0 0 0 0 0 0 0 0 0 0 0 0 0 0 0 0 0 127 0"/>
<feOffset/>
<feGaussianBlur stdDeviation="2"/>
<feColorMatrix type="matrix" values="0 0 0 0 0 0 0 0 0 0 0 0 0 0 0 0 0 0 0.75 0"/>
<feBlend mode="normal" in2="BackgroundImageFix" result="effect1_dropShadow"/>
<feBlend mode="normal" in="SourceGraphic" in2="effect1_dropShadow" result="shape"/>
</filter>
</defs>
</svg>
