<svg width="41" height="36" viewBox="0 0 41 36" fill="none" xmlns="http://www.w3.org/2000/svg">
<g filter="url(#filter0_d)">
<path d="M25.2469 13.9675L25.2505 13.7175L25.245 13.7175L25.2469 13.9675ZM16.7531 26.0652H16.5031C16.5031 26.1317 16.5296 26.1954 16.5767 26.2423C16.6238 26.2892 16.6876 26.3155 16.7541 26.3152L16.7531 26.0652ZM25.2469 26.0326L25.2478 26.2826C25.3855 26.2821 25.4969 26.1703 25.4969 26.0326H25.2469ZM18.75 15.5C18.75 15.362 18.6381 15.25 18.5 15.25C18.3619 15.25 18.25 15.362 18.25 15.5H18.75ZM18.25 24.5C18.25 24.6381 18.3619 24.75 18.5 24.75C18.6381 24.75 18.75 24.6381 18.75 24.5H18.25ZM21.25 15.5C21.25 15.362 21.1381 15.25 21 15.25C20.8619 15.25 20.75 15.362 20.75 15.5H21.25ZM20.75 24.5C20.75 24.6381 20.8619 24.75 21 24.75C21.1381 24.75 21.25 24.6381 21.25 24.5H20.75ZM23.75 15.5C23.75 15.362 23.6381 15.25 23.5 15.25C23.3619 15.25 23.25 15.362 23.25 15.5H23.75ZM23.25 24.5C23.25 24.6381 23.3619 24.75 23.5 24.75C23.6381 24.75 23.75 24.6381 23.75 24.5H23.25ZM14.5 14.0001H14.25C14.25 14.1367 14.3597 14.2481 14.4964 14.2501L14.5 14.0001ZM14.5 13.5326V13.2826C14.3619 13.2826 14.25 13.3945 14.25 13.5326H14.5ZM27.5 13.5H27.75C27.75 13.4334 27.7234 13.3696 27.6762 13.3226C27.629 13.2757 27.565 13.2496 27.4984 13.25L27.5 13.5ZM27.5 14.0001L27.4964 14.2501C27.5633 14.251 27.6278 14.2251 27.6755 14.1781C27.7232 14.1312 27.75 14.067 27.75 14.0001H27.5ZM19.5 11.8499L19.4973 11.5999C19.3603 11.6014 19.25 11.7129 19.25 11.8499H19.5ZM22.5 11.8173H22.75C22.75 11.7505 22.7233 11.6865 22.6758 11.6395C22.6283 11.5926 22.5641 11.5665 22.4973 11.5673L22.5 11.8173ZM22.5 13.5326V13.7826L22.5016 13.7826L22.5 13.5326ZM17.0031 26.0652V14.0327H16.5031V26.0652H17.0031ZM24.9969 13.9675V26.0326H25.4969V13.9675H24.9969ZM25.2459 25.7826L16.7522 25.8152L16.7541 26.3152L25.2478 26.2826L25.2459 25.7826ZM25.245 13.7175L16.7512 13.7827L16.755 14.2827L25.2488 14.2175L25.245 13.7175ZM18.25 15.5V24.5H18.75V15.5H18.25ZM20.75 15.5V24.5H21.25V15.5H20.75ZM23.25 15.5V24.5H23.75V15.5H23.25ZM16.7567 13.7827L14.5036 13.7501L14.4964 14.2501L16.7495 14.2827L16.7567 13.7827ZM14.75 14.0001V13.5326H14.25V14.0001H14.75ZM27.25 13.5V14.0001H27.75V13.5H27.25ZM27.5036 13.7501L25.2505 13.7175L25.2433 14.2175L27.4964 14.2501L27.5036 13.7501ZM14.5 13.7826H19.5V13.2826H14.5V13.7826ZM19.5 13.7826H21V13.2826H19.5V13.7826ZM19.75 13.5326V11.8499H19.25V13.5326H19.75ZM19.5027 12.0999L22.5027 12.0672L22.4973 11.5673L19.4973 11.5999L19.5027 12.0999ZM21 13.7826H22.5V13.2826H21V13.7826ZM22.5016 13.7826L27.5016 13.75L27.4984 13.25L22.4984 13.2826L22.5016 13.7826ZM22.25 11.8173V13.5326H22.75V11.8173H22.25Z" fill="#EB5757"/>
</g>
<defs>
<filter id="filter0_d" x="10.25" y="7.56726" width="21.5" height="22.748" filterUnits="userSpaceOnUse" color-interpolation-filters="sRGB">
<feFlood flood-opacity="0" result="BackgroundImageFix"/>
<feColorMatrix in="SourceAlpha" type="matrix" values="0 0 0 0 0 0 0 0 0 0 0 0 0 0 0 0 0 0 127 0"/>
<feOffset/>
<feGaussianBlur stdDeviation="2"/>
<feColorMatrix type="matrix" values="0 0 0 0 0 0 0 0 0 0 0 0 0 0 0 0 0 0 0.75 0"/>
<feBlend mode="normal" in2="BackgroundImageFix" result="effect1_dropShadow"/>
<feBlend mode="normal" in="SourceGraphic" in2="effect1_dropShadow" result="shape"/>
</filter>
</defs>
</svg>
