<svg width="40" height="35" viewBox="0 0 40 35" fill="none" xmlns="http://www.w3.org/2000/svg">
    <g filter="url(#filter0_d)">
    <path d="M14.8555 24.5143V12.4143C14.8555 12.3038 14.945 12.2143 15.0555 12.2143H27.1555C27.2659 12.2143 27.3555 12.3038 27.3555 12.4143V24.5143C27.3555 24.6248 27.2659 24.7143 27.1555 24.7143H15.0555C14.945 24.7143 14.8555 24.6248 14.8555 24.5143Z" fill="#EB5757"/>
    <path d="M14.8555 24.5143V12.4143C14.8555 12.3038 14.945 12.2143 15.0555 12.2143H27.1555C27.2659 12.2143 27.3555 12.3038 27.3555 12.4143V24.5143C27.3555 24.6248 27.2659 24.7143 27.1555 24.7143H15.0555C14.945 24.7143 14.8555 24.6248 14.8555 24.5143Z" stroke="#EB5757"/>
    </g>
    <defs>
    <filter id="filter0_d" x="10.3555" y="7.71429" width="21.5" height="21.5" filterUnits="userSpaceOnUse" color-interpolation-filters="sRGB">
    <feFlood flood-opacity="0" result="BackgroundImageFix"/>
    <feColorMatrix in="SourceAlpha" type="matrix" values="0 0 0 0 0 0 0 0 0 0 0 0 0 0 0 0 0 0 127 0"/>
    <feOffset/>
    <feGaussianBlur stdDeviation="2"/>
    <feColorMatrix type="matrix" values="0 0 0 0 0 0 0 0 0 0 0 0 0 0 0 0 0 0 0.75 0"/>
    <feBlend mode="normal" in2="BackgroundImageFix" result="effect1_dropShadow"/>
    <feBlend mode="normal" in="SourceGraphic" in2="effect1_dropShadow" result="shape"/>
    </filter>
    </defs>
    </svg>
    