<svg width="45" height="12" viewBox="0 0 45 12" fill="none" xmlns="http://www.w3.org/2000/svg">
	<path d="M5.80078 6.77344H2.22656L1.42383 9H0.263672L3.52148 0.46875H4.50586L7.76953 9H6.61523L5.80078 6.77344ZM2.56641 5.84766H5.4668L4.01367 1.85742L2.56641 5.84766ZM8.49023 5.77734C8.49023 4.78906 8.71875 4.00391 9.17578 3.42188C9.63281 2.83594 10.2383 2.54297 10.9922 2.54297C11.7656 2.54297 12.3691 2.81641 12.8027 3.36328L12.8555 2.66016H13.8457V8.84766C13.8457 9.66797 13.6016 10.3145 13.1133 10.7871C12.6289 11.2598 11.9766 11.4961 11.1562 11.4961C10.6992 11.4961 10.252 11.3984 9.81445 11.2031C9.37695 11.0078 9.04297 10.7402 8.8125 10.4004L9.375 9.75C9.83984 10.3242 10.4082 10.6113 11.0801 10.6113C11.6074 10.6113 12.0176 10.4629 12.3105 10.166C12.6074 9.86914 12.7559 9.45117 12.7559 8.91211V8.36719C12.3223 8.86719 11.7305 9.11719 10.9805 9.11719C10.2383 9.11719 9.63672 8.81836 9.17578 8.2207C8.71875 7.62305 8.49023 6.80859 8.49023 5.77734ZM9.58008 5.90039C9.58008 6.61523 9.72656 7.17773 10.0195 7.58789C10.3125 7.99414 10.7227 8.19727 11.25 8.19727C11.9336 8.19727 12.4355 7.88672 12.7559 7.26562V4.37109C12.4238 3.76562 11.9258 3.46289 11.2617 3.46289C10.7344 3.46289 10.3223 3.66797 10.0254 4.07812C9.72852 4.48828 9.58008 5.0957 9.58008 5.90039ZM19.4004 8.37305C18.9785 8.86914 18.3594 9.11719 17.543 9.11719C16.8672 9.11719 16.3516 8.92188 15.9961 8.53125C15.6445 8.13672 15.4668 7.55469 15.4629 6.78516V2.66016H16.5469V6.75586C16.5469 7.7168 16.9375 8.19727 17.7188 8.19727C18.5469 8.19727 19.0977 7.88867 19.3711 7.27148V2.66016H20.4551V9H19.4238L19.4004 8.37305ZM26.0215 9C25.959 8.875 25.9082 8.65234 25.8691 8.33203C25.3652 8.85547 24.7637 9.11719 24.0645 9.11719C23.4395 9.11719 22.9258 8.94141 22.5234 8.58984C22.125 8.23438 21.9258 7.78516 21.9258 7.24219C21.9258 6.58203 22.1758 6.07031 22.6758 5.70703C23.1797 5.33984 23.8867 5.15625 24.7969 5.15625H25.8516V4.6582C25.8516 4.2793 25.7383 3.97852 25.5117 3.75586C25.2852 3.5293 24.9512 3.41602 24.5098 3.41602C24.123 3.41602 23.7988 3.51367 23.5371 3.70898C23.2754 3.9043 23.1445 4.14062 23.1445 4.41797H22.0547C22.0547 4.10156 22.166 3.79688 22.3887 3.50391C22.6152 3.20703 22.9199 2.97266 23.3027 2.80078C23.6895 2.62891 24.1133 2.54297 24.5742 2.54297C25.3047 2.54297 25.877 2.72656 26.291 3.09375C26.7051 3.45703 26.9199 3.95898 26.9355 4.59961V7.51758C26.9355 8.09961 27.0098 8.5625 27.1582 8.90625V9H26.0215ZM24.2227 8.17383C24.5625 8.17383 24.8848 8.08594 25.1895 7.91016C25.4941 7.73438 25.7148 7.50586 25.8516 7.22461V5.92383H25.002C23.6738 5.92383 23.0098 6.3125 23.0098 7.08984C23.0098 7.42969 23.123 7.69531 23.3496 7.88672C23.5762 8.07812 23.8672 8.17383 24.2227 8.17383ZM31.6992 3.63281C31.5352 3.60547 31.3574 3.5918 31.166 3.5918C30.4551 3.5918 29.9727 3.89453 29.7188 4.5V9H28.6348V2.66016H29.6895L29.707 3.39258C30.0625 2.82617 30.5664 2.54297 31.2188 2.54297C31.4297 2.54297 31.5898 2.57031 31.6992 2.625V3.63281ZM32.3203 5.77734C32.3203 4.80469 32.5508 4.02344 33.0117 3.43359C33.4727 2.83984 34.0762 2.54297 34.8223 2.54297C35.5645 2.54297 36.1523 2.79688 36.5859 3.30469V0H37.6699V9H36.6738L36.6211 8.32031C36.1875 8.85156 35.584 9.11719 34.8105 9.11719C34.0762 9.11719 33.4766 8.81641 33.0117 8.21484C32.5508 7.61328 32.3203 6.82812 32.3203 5.85938V5.77734ZM33.4043 5.90039C33.4043 6.61914 33.5527 7.18164 33.8496 7.58789C34.1465 7.99414 34.5566 8.19727 35.0801 8.19727C35.7676 8.19727 36.2695 7.88867 36.5859 7.27148V4.35938C36.2617 3.76172 35.7637 3.46289 35.0918 3.46289C34.5605 3.46289 34.1465 3.66797 33.8496 4.07812C33.5527 4.48828 33.4043 5.0957 33.4043 5.90039ZM41.9883 9.11719C41.1289 9.11719 40.4297 8.83594 39.8906 8.27344C39.3516 7.70703 39.082 6.95117 39.082 6.00586V5.80664C39.082 5.17773 39.2012 4.61719 39.4395 4.125C39.6816 3.62891 40.0176 3.24219 40.4473 2.96484C40.8809 2.68359 41.3496 2.54297 41.8535 2.54297C42.6777 2.54297 43.3184 2.81445 43.7754 3.35742C44.2324 3.90039 44.4609 4.67773 44.4609 5.68945V6.14062H40.166C40.1816 6.76562 40.3633 7.27148 40.7109 7.6582C41.0625 8.04102 41.5078 8.23242 42.0469 8.23242C42.4297 8.23242 42.7539 8.1543 43.0195 7.99805C43.2852 7.8418 43.5176 7.63477 43.7168 7.37695L44.3789 7.89258C43.8477 8.70898 43.0508 9.11719 41.9883 9.11719ZM41.8535 3.43359C41.416 3.43359 41.0488 3.59375 40.752 3.91406C40.4551 4.23047 40.2715 4.67578 40.2012 5.25H43.377V5.16797C43.3457 4.61719 43.1973 4.19141 42.9316 3.89062C42.666 3.58594 42.3066 3.43359 41.8535 3.43359Z" fill="black" />
</svg>
